<svg width="355" height="97" viewBox="0 0 355 97" fill="none" xmlns="http://www.w3.org/2000/svg">
<path d="M85.344 79.28C80.8213 84.7413 75.488 88.9227 69.344 91.824C63.2 94.64 56.3307 96.048 48.736 96.048C41.9093 96.048 35.552 94.8107 29.664 92.336C23.8613 89.8613 18.8267 86.4907 14.56 82.224C10.2933 77.9573 6.92267 72.9227 4.448 67.12C1.97333 61.232 0.736 54.9173 0.736 48.176C0.736 41.4347 1.97333 35.1627 4.448 29.36C6.92267 23.472 10.2933 18.3947 14.56 14.128C18.8267 9.86133 23.8613 6.49066 29.664 4.016C35.552 1.54133 41.9093 0.303993 48.736 0.303993C56.0747 0.303993 62.5173 1.58399 68.064 4.144C73.696 6.70399 78.688 10.416 83.04 15.28L70.88 27.056C68.1493 23.8987 64.992 21.3813 61.408 19.504C57.9093 17.6267 53.728 16.688 48.864 16.688C44.5973 16.688 40.5867 17.456 36.832 18.992C33.0773 20.4427 29.792 22.5333 26.976 25.264C24.2453 27.9947 22.0693 31.3227 20.448 35.248C18.8267 39.088 18.016 43.3973 18.016 48.176C18.016 52.9547 18.8267 57.3067 20.448 61.232C22.0693 65.072 24.2453 68.3573 26.976 71.088C29.792 73.8187 33.0773 75.952 36.832 77.488C40.5867 78.9387 44.5973 79.664 48.864 79.664C53.984 79.664 58.5067 78.64 62.432 76.592C66.4427 74.4587 69.984 71.472 73.056 67.632L85.344 79.28ZM92.048 2.352H110.352L124.56 55.856L126.608 65.712H127.632L130.32 55.856L143.504 14.64H159.632L172.944 55.856L175.504 65.584H176.528L178.448 55.856L191.76 2.352H210.064L185.744 94H169.104L154.768 49.84L152.08 39.728H151.056L148.368 49.84L134.032 94H117.392L92.048 2.352ZM240.797 94V18.736H215.197V2.352H283.677V18.736H258.077V94H240.797ZM322.748 96.048C318.823 96.048 315.068 95.4933 311.484 94.384C307.9 93.2747 304.615 91.6107 301.628 89.392C298.641 87.1733 296.039 84.4853 293.82 81.328C291.601 78.0853 289.852 74.3307 288.572 70.064L304.828 63.664C306.023 68.272 308.113 72.112 311.1 75.184C314.087 78.1707 318.012 79.664 322.876 79.664C324.668 79.664 326.375 79.4507 327.996 79.024C329.703 78.512 331.196 77.8293 332.476 76.976C333.841 76.0373 334.908 74.8853 335.676 73.52C336.444 72.1547 336.828 70.576 336.828 68.784C336.828 67.0773 336.529 65.5413 335.932 64.176C335.335 62.8107 334.311 61.5307 332.86 60.336C331.495 59.1413 329.66 57.9893 327.356 56.88C325.137 55.7707 322.364 54.6187 319.036 53.424L313.404 51.376C310.929 50.5227 308.412 49.3707 305.852 47.92C303.377 46.4693 301.116 44.72 299.068 42.672C297.02 40.624 295.313 38.2347 293.948 35.504C292.668 32.688 292.028 29.5307 292.028 26.032C292.028 22.448 292.711 19.12 294.076 16.048C295.527 12.8907 297.532 10.16 300.092 7.856C302.737 5.46666 305.852 3.632 309.436 2.352C313.105 0.986661 317.159 0.303993 321.596 0.303993C326.204 0.303993 330.172 0.943995 333.5 2.224C336.913 3.41867 339.772 4.99733 342.076 6.96C344.465 8.83733 346.385 10.928 347.836 13.232C349.287 15.536 350.353 17.712 351.036 19.76L335.804 26.16C334.951 23.6 333.372 21.296 331.068 19.248C328.849 17.2 325.777 16.176 321.852 16.176C318.097 16.176 314.983 17.072 312.508 18.864C310.033 20.5707 308.796 22.832 308.796 25.648C308.796 28.3787 309.991 30.7253 312.38 32.688C314.769 34.5653 318.567 36.4 323.772 38.192L329.532 40.112C333.201 41.392 336.529 42.8853 339.516 44.592C342.588 46.2133 345.191 48.176 347.324 50.48C349.543 52.784 351.207 55.4293 352.316 58.416C353.511 61.3173 354.108 64.688 354.108 68.528C354.108 73.3067 353.127 77.4453 351.164 80.944C349.287 84.3573 346.855 87.1733 343.868 89.392C340.881 91.6107 337.511 93.2747 333.756 94.384C330.001 95.4933 326.332 96.048 322.748 96.048Z" fill="black"/>
</svg>
